<svg xmlns="http://www.w3.org/2000/svg" xmlns:xlink="http://www.w3.org/1999/xlink" width="125" zoomAndPan="magnify" viewBox="0 0 93.75 30.000001" height="40" preserveAspectRatio="xMidYMid meet" version="1.0"><defs><g/></defs><g fill="#000000" fill-opacity="1"><g transform="translate(1.391128, 18.192846)"><g><path d="M 5.34375 -10.296875 C 6.632812 -10.296875 7.695312 -10.03125 8.53125 -9.5 C 9.363281 -8.976562 9.789062 -8.203125 9.8125 -7.171875 L 9.8125 -7 L 6.765625 -7 L 6.765625 -7.0625 C 6.765625 -7.351562 6.65625 -7.597656 6.4375 -7.796875 C 6.21875 -7.992188 5.890625 -8.09375 5.453125 -8.09375 C 5.023438 -8.09375 4.691406 -8.023438 4.453125 -7.890625 C 4.222656 -7.765625 4.109375 -7.609375 4.109375 -7.421875 C 4.109375 -7.160156 4.265625 -6.960938 4.578125 -6.828125 C 4.898438 -6.703125 5.410156 -6.570312 6.109375 -6.4375 C 6.921875 -6.269531 7.585938 -6.09375 8.109375 -5.90625 C 8.628906 -5.726562 9.085938 -5.429688 9.484375 -5.015625 C 9.878906 -4.609375 10.082031 -4.054688 10.09375 -3.359375 C 10.09375 -2.160156 9.6875 -1.269531 8.875 -0.6875 C 8.0625 -0.113281 6.976562 0.171875 5.625 0.171875 C 4.050781 0.171875 2.820312 -0.0859375 1.9375 -0.609375 C 1.0625 -1.140625 0.625 -2.078125 0.625 -3.421875 L 3.703125 -3.421875 C 3.703125 -2.910156 3.832031 -2.566406 4.09375 -2.390625 C 4.363281 -2.222656 4.78125 -2.140625 5.34375 -2.140625 C 5.75 -2.140625 6.085938 -2.179688 6.359375 -2.265625 C 6.628906 -2.359375 6.765625 -2.546875 6.765625 -2.828125 C 6.765625 -3.066406 6.613281 -3.25 6.3125 -3.375 C 6.007812 -3.5 5.523438 -3.628906 4.859375 -3.765625 C 4.023438 -3.941406 3.335938 -4.125 2.796875 -4.3125 C 2.265625 -4.507812 1.796875 -4.828125 1.390625 -5.265625 C 0.992188 -5.703125 0.796875 -6.300781 0.796875 -7.0625 C 0.796875 -8.164062 1.222656 -8.976562 2.078125 -9.5 C 2.929688 -10.03125 4.019531 -10.296875 5.34375 -10.296875 Z M 5.34375 -10.296875 "/></g></g></g><g fill="#000000" fill-opacity="1"><g transform="translate(12.009495, 18.192846)"><g><path d="M 3.8125 -6.953125 C 4.125 -7.265625 4.488281 -7.503906 4.90625 -7.671875 C 5.332031 -7.847656 5.773438 -7.9375 6.234375 -7.9375 C 7.140625 -7.9375 7.816406 -7.6875 8.265625 -7.1875 C 8.710938 -6.6875 8.9375 -5.96875 8.9375 -5.03125 L 8.9375 0 L 6.015625 0 L 6.015625 -4.671875 C 6.015625 -5.003906 5.925781 -5.269531 5.75 -5.46875 C 5.582031 -5.675781 5.34375 -5.78125 5.03125 -5.78125 C 4.664062 -5.78125 4.367188 -5.660156 4.140625 -5.421875 C 3.921875 -5.191406 3.8125 -4.90625 3.8125 -4.5625 L 3.8125 0 L 0.875 0 L 0.875 -10.65625 L 3.8125 -10.65625 Z M 3.8125 -6.953125 "/></g></g></g><g fill="#000000" fill-opacity="1"><g transform="translate(21.818995, 18.192846)"><g><path d="M 4.890625 -7.9375 C 6.253906 -7.9375 7.328125 -7.585938 8.109375 -6.890625 C 8.890625 -6.203125 9.28125 -5.195312 9.28125 -3.875 C 9.28125 -2.550781 8.890625 -1.546875 8.109375 -0.859375 C 7.328125 -0.171875 6.253906 0.171875 4.890625 0.171875 C 3.535156 0.171875 2.46875 -0.164062 1.6875 -0.84375 C 0.914062 -1.53125 0.53125 -2.539062 0.53125 -3.875 C 0.53125 -5.207031 0.914062 -6.21875 1.6875 -6.90625 C 2.46875 -7.59375 3.535156 -7.9375 4.890625 -7.9375 Z M 4.890625 -5.953125 C 3.929688 -5.953125 3.453125 -5.398438 3.453125 -4.296875 L 3.453125 -3.453125 C 3.453125 -2.359375 3.929688 -1.8125 4.890625 -1.8125 C 5.867188 -1.8125 6.359375 -2.359375 6.359375 -3.453125 L 6.359375 -4.296875 C 6.359375 -5.398438 5.867188 -5.953125 4.890625 -5.953125 Z M 4.890625 -5.953125 "/></g></g></g><g fill="#000000" fill-opacity="1"><g transform="translate(31.628495, 18.192846)"><g><path d="M 6 -7.9375 C 7.050781 -7.9375 7.859375 -7.59375 8.421875 -6.90625 C 8.992188 -6.21875 9.28125 -5.203125 9.28125 -3.859375 C 9.28125 -2.535156 8.992188 -1.53125 8.421875 -0.84375 C 7.859375 -0.164062 7.050781 0.171875 6 0.171875 C 5.09375 0.171875 4.367188 -0.117188 3.828125 -0.703125 L 3.828125 2.890625 L 0.890625 2.890625 L 0.890625 -7.765625 L 3.28125 -7.765625 L 3.53125 -6.65625 C 4.09375 -7.507812 4.914062 -7.9375 6 -7.9375 Z M 5.09375 -5.78125 C 4.65625 -5.78125 4.328125 -5.625 4.109375 -5.3125 C 3.898438 -5.007812 3.796875 -4.613281 3.796875 -4.125 L 3.796875 -3.640625 C 3.796875 -3.148438 3.898438 -2.75 4.109375 -2.4375 C 4.328125 -2.132812 4.65625 -1.984375 5.09375 -1.984375 C 5.9375 -1.984375 6.359375 -2.488281 6.359375 -3.5 L 6.359375 -4.28125 C 6.359375 -5.28125 5.9375 -5.78125 5.09375 -5.78125 Z M 5.09375 -5.78125 "/></g></g></g><g fill="#000000" fill-opacity="1"><g transform="translate(41.437995, 18.192846)"><g><path d="M 11.4375 0 L 7.5 0 L 5.625 -3.140625 L 5.578125 -3.140625 L 3.703125 0 L 0.0625 0 L 3.671875 -5.359375 L 0.40625 -10.109375 L 4.34375 -10.109375 L 5.859375 -7.53125 L 5.921875 -7.53125 L 7.46875 -10.109375 L 11.09375 -10.109375 L 7.828125 -5.34375 Z M 11.4375 0 "/></g></g></g><g fill="#000000" fill-opacity="1"><g transform="translate(52.879957, 18.192846)"><g><path d="M 5.34375 -10.296875 C 6.632812 -10.296875 7.695312 -10.03125 8.53125 -9.5 C 9.363281 -8.976562 9.789062 -8.203125 9.8125 -7.171875 L 9.8125 -7 L 6.765625 -7 L 6.765625 -7.0625 C 6.765625 -7.351562 6.65625 -7.597656 6.4375 -7.796875 C 6.21875 -7.992188 5.890625 -8.09375 5.453125 -8.09375 C 5.023438 -8.09375 4.691406 -8.023438 4.453125 -7.890625 C 4.222656 -7.765625 4.109375 -7.609375 4.109375 -7.421875 C 4.109375 -7.160156 4.265625 -6.960938 4.578125 -6.828125 C 4.898438 -6.703125 5.410156 -6.570312 6.109375 -6.4375 C 6.921875 -6.269531 7.585938 -6.09375 8.109375 -5.90625 C 8.628906 -5.726562 9.085938 -5.429688 9.484375 -5.015625 C 9.878906 -4.609375 10.082031 -4.054688 10.09375 -3.359375 C 10.09375 -2.160156 9.6875 -1.269531 8.875 -0.6875 C 8.0625 -0.113281 6.976562 0.171875 5.625 0.171875 C 4.050781 0.171875 2.820312 -0.0859375 1.9375 -0.609375 C 1.0625 -1.140625 0.625 -2.078125 0.625 -3.421875 L 3.703125 -3.421875 C 3.703125 -2.910156 3.832031 -2.566406 4.09375 -2.390625 C 4.363281 -2.222656 4.78125 -2.140625 5.34375 -2.140625 C 5.75 -2.140625 6.085938 -2.179688 6.359375 -2.265625 C 6.628906 -2.359375 6.765625 -2.546875 6.765625 -2.828125 C 6.765625 -3.066406 6.613281 -3.25 6.3125 -3.375 C 6.007812 -3.5 5.523438 -3.628906 4.859375 -3.765625 C 4.023438 -3.941406 3.335938 -4.125 2.796875 -4.3125 C 2.265625 -4.507812 1.796875 -4.828125 1.390625 -5.265625 C 0.992188 -5.703125 0.796875 -6.300781 0.796875 -7.0625 C 0.796875 -8.164062 1.222656 -8.976562 2.078125 -9.5 C 2.929688 -10.03125 4.019531 -10.296875 5.34375 -10.296875 Z M 5.34375 -10.296875 "/></g></g></g><g fill="#000000" fill-opacity="1"><g transform="translate(63.498325, 18.192846)"><g><path d="M 4.71875 -7.9375 C 5.90625 -7.9375 6.867188 -7.738281 7.609375 -7.34375 C 8.359375 -6.945312 8.734375 -6.300781 8.734375 -5.40625 L 8.734375 -2.375 C 8.734375 -2.207031 8.769531 -2.070312 8.84375 -1.96875 C 8.925781 -1.863281 9.046875 -1.8125 9.203125 -1.8125 L 9.734375 -1.8125 L 9.734375 -0.125 C 9.703125 -0.101562 9.625 -0.0664062 9.5 -0.015625 C 9.382812 0.0234375 9.210938 0.0664062 8.984375 0.109375 C 8.753906 0.148438 8.492188 0.171875 8.203125 0.171875 C 7.628906 0.171875 7.160156 0.0859375 6.796875 -0.078125 C 6.429688 -0.253906 6.179688 -0.492188 6.046875 -0.796875 C 5.671875 -0.503906 5.253906 -0.269531 4.796875 -0.09375 C 4.335938 0.0820312 3.796875 0.171875 3.171875 0.171875 C 1.347656 0.171875 0.4375 -0.550781 0.4375 -2 C 0.4375 -2.75 0.640625 -3.320312 1.046875 -3.71875 C 1.453125 -4.125 2.035156 -4.398438 2.796875 -4.546875 C 3.566406 -4.691406 4.570312 -4.765625 5.8125 -4.765625 L 5.8125 -5.140625 C 5.8125 -5.453125 5.703125 -5.6875 5.484375 -5.84375 C 5.273438 -6 5.003906 -6.078125 4.671875 -6.078125 C 4.367188 -6.078125 4.109375 -6.019531 3.890625 -5.90625 C 3.671875 -5.800781 3.5625 -5.628906 3.5625 -5.390625 L 3.5625 -5.34375 L 0.671875 -5.34375 C 0.660156 -5.382812 0.65625 -5.453125 0.65625 -5.546875 C 0.65625 -6.273438 1.003906 -6.851562 1.703125 -7.28125 C 2.410156 -7.71875 3.414062 -7.9375 4.71875 -7.9375 Z M 5.8125 -3.375 C 4.976562 -3.375 4.359375 -3.285156 3.953125 -3.109375 C 3.554688 -2.929688 3.359375 -2.6875 3.359375 -2.375 C 3.359375 -1.882812 3.691406 -1.640625 4.359375 -1.640625 C 4.742188 -1.640625 5.082031 -1.742188 5.375 -1.953125 C 5.664062 -2.160156 5.8125 -2.414062 5.8125 -2.71875 Z M 5.8125 -3.375 "/></g></g></g><g fill="#000000" fill-opacity="1"><g transform="translate(73.307825, 18.192846)"><g><path d="M 2.9375 0 L 0 -7.765625 L 3.140625 -7.765625 L 4.578125 -2.921875 L 4.671875 -2.921875 L 6.109375 -7.765625 L 8.984375 -7.765625 L 6.015625 0 Z M 2.9375 0 "/></g></g></g><g fill="#000000" fill-opacity="1"><g transform="translate(82.29373, 18.192846)"><g><path d="M 4.890625 -7.9375 C 6.316406 -7.9375 7.40625 -7.601562 8.15625 -6.9375 C 8.90625 -6.269531 9.28125 -5.25 9.28125 -3.875 L 9.28125 -3.375 L 3.453125 -3.375 C 3.453125 -2.820312 3.578125 -2.398438 3.828125 -2.109375 C 4.078125 -1.828125 4.472656 -1.6875 5.015625 -1.6875 C 5.503906 -1.6875 5.863281 -1.789062 6.09375 -2 C 6.320312 -2.207031 6.4375 -2.484375 6.4375 -2.828125 L 9.28125 -2.828125 C 9.28125 -1.878906 8.921875 -1.140625 8.203125 -0.609375 C 7.484375 -0.0859375 6.441406 0.171875 5.078125 0.171875 C 3.628906 0.171875 2.507812 -0.160156 1.71875 -0.828125 C 0.925781 -1.503906 0.53125 -2.519531 0.53125 -3.875 C 0.53125 -5.207031 0.914062 -6.21875 1.6875 -6.90625 C 2.46875 -7.59375 3.535156 -7.9375 4.890625 -7.9375 Z M 5.015625 -6.078125 C 4.085938 -6.078125 3.570312 -5.640625 3.46875 -4.765625 L 6.328125 -4.765625 C 6.328125 -5.160156 6.207031 -5.476562 5.96875 -5.71875 C 5.738281 -5.957031 5.421875 -6.078125 5.015625 -6.078125 Z M 5.015625 -6.078125 "/></g></g></g></svg>